<svg width="40" height="40" viewBox="0 0 40 40" fill="none" xmlns="http://www.w3.org/2000/svg">
    <rect width="40" height="40"/>
    <path d="M38 15.1564V30.858C37.9457 30.9161 37.9426 30.9942 37.9209 31.0641C37.7887 31.4917 37.648 31.9179 37.445 32.3171C35.5731 35.9968 32.5608 37.9292 28.3836 37.9791C24.9061 38.0207 21.4276 37.9873 17.9496 37.9879C17.2441 37.988 16.5447 37.9333 15.852 37.793C11.2957 36.8706 8.00053 32.8827 8.00084 28.2881C8.00108 24.7768 8.00274 21.2654 8 17.7541C7.9989 16.3351 8.26485 14.9638 8.89987 13.6961C10.7574 9.98806 13.8054 8.07493 17.9915 8.02238C21.4438 7.97905 24.8971 8.01124 28.35 8.01539C29.0795 8.01626 29.8078 8.05878 30.5215 8.22421C33.9739 9.02446 36.3673 11.0491 37.6959 14.2983C37.8107 14.5789 37.8993 14.8701 38 15.1564H38ZM21.8132 28.4682C21.8075 31.9622 24.6702 34.802 28.21 34.8138C31.7227 34.8256 34.6077 31.992 34.6157 28.5224C34.6238 25.0018 31.7785 22.1688 28.2272 22.1617C24.7002 22.1547 21.8189 24.9877 21.8132 28.4682ZM15.4833 12.4261C13.2726 12.4219 11.4696 14.1837 11.4635 16.3543C11.4573 18.549 13.255 20.3377 15.4697 20.3404C17.661 20.3431 19.4707 18.5691 19.4748 16.4144C19.479 14.2011 17.7068 12.4303 15.4833 12.4261V12.4261Z" fill="#004880"/>
    <path d="M5.51236 2.00001C3.58072 1.99628 2.00538 3.55458 2.00001 5.47436C1.99459 7.41554 3.56535 8.99761 5.50046 9C7.41517 9.00236 8.99642 7.43335 8.99999 5.52755C9.00366 3.56992 7.45521 2.00375 5.51236 2.00001Z" fill="#004880"/>
</svg>
